# Blender 4.3.2
# www.blender.org
mtllib TEST.mtl
o Cube
v 0.045000 0.092500 -0.045000
v 0.045000 -0.092500 -0.045000
v 0.045000 0.092500 0.045000
v 0.045000 -0.092500 0.045000
v -0.045000 0.092500 -0.045000
v -0.045000 -0.092500 -0.045000
v -0.045000 0.092500 0.045000
v -0.045000 -0.092500 0.045000
v 0.045000 0.000000 -0.045000
v -0.045000 0.000000 0.045000
v 0.045000 0.000000 0.045000
v -0.045000 0.000000 -0.045000
vn -0.0000 1.0000 -0.0000
vn -0.0000 -0.0000 1.0000
vn -1.0000 -0.0000 -0.0000
vn -0.0000 -1.0000 -0.0000
vn 1.0000 -0.0000 -0.0000
vn -0.0000 -0.0000 -1.0000
vt 0.875000 0.500000
vt 0.625000 0.750000
vt 0.625289 0.499687
vt 0.500000 1.000000
vt 0.500000 0.750000
vt 0.000000 0.750000
vt 1.000000 0.250000
vt 0.000000 0.250000
vt 0.375000 0.500000
vt 0.125000 0.750000
vt 0.125000 0.500000
vt 0.500144 0.499844
vt 0.500000 0.250000
vt 0.375000 0.250000
vt 0.375000 0.750000
vt 0.500000 0.000000
vt 0.375000 0.000000
vt 0.375000 1.000000
vt 0.875000 0.750000
vt 0.625000 1.000000
vt 1.000000 0.750000
s 0
usemtl Material
f 5/1/1 3/2/1 1/3/1
f 3/2/2 10/4/2 11/5/2
f 7/6/3 12/7/3 10/8/3
f 2/9/4 8/10/4 6/11/4
f 1/3/5 11/5/5 9/12/5
f 5/6/6 9/7/6 12/8/6
f 12/13/6 2/9/6 6/14/6
f 9/12/5 4/15/5 2/9/5
f 10/16/3 6/14/3 8/17/3
f 11/5/2 8/18/2 4/15/2
f 5/1/1 7/19/1 3/2/1
f 3/2/2 7/20/2 10/4/2
f 7/6/3 5/21/3 12/7/3
f 2/9/4 4/15/4 8/10/4
f 1/3/5 3/2/5 11/5/5
f 5/6/6 1/21/6 9/7/6
f 12/13/6 9/12/6 2/9/6
f 9/12/5 11/5/5 4/15/5
f 10/16/3 12/13/3 6/14/3
f 11/5/2 10/4/2 8/18/2
